<svg width="40" height="40" viewBox="0 0 40 40" fill="none" xmlns="http://www.w3.org/2000/svg">
<path d="M19.7299 36.6666C13.4497 36.6666 8.3449 31.6513 8.33337 25.4952V14.5046C8.33337 8.3485 13.4497 3.33325 19.7299 3.33325H20.548C26.8282 3.33325 31.9445 8.3485 31.9445 14.5046V25.4952C31.9445 31.6513 26.8282 36.6666 20.548 36.6666H19.7299ZM11.1681 14.5046V25.4952C11.1681 30.1264 15.0169 33.8992 19.7414 33.8992H20.5595C25.2841 33.8992 29.1328 30.1264 29.1328 25.4952V14.5046C29.1328 9.87341 25.2841 6.10068 20.5595 6.10068H19.7414C15.0169 6.10068 11.1681 9.87341 11.1681 14.5046ZM20.8334 17.2221C20.0655 17.2221 19.4445 16.5856 19.4445 15.7724V10.3386C19.4445 9.53709 20.0655 8.88881 20.8334 8.88881C21.6012 8.88881 22.2223 9.53709 22.2223 10.3386V15.7724C22.2223 16.5739 21.6012 17.2221 20.8334 17.2221Z" fill="white"/>
</svg>
