<svg width="48" height="48" viewBox="0 0 48 48" fill="none" xmlns="http://www.w3.org/2000/svg">
<path d="M24 48C37.2548 48 48 37.2548 48 24C48 10.7452 37.2548 0 24 0C10.7452 0 0 10.7452 0 24C0 37.2548 10.7452 48 24 48Z" fill="#FD5545"/>
<path d="M28.3764 15.0038L26.0394 15C23.4139 15 21.7172 16.7506 21.7172 19.4601V21.5165H19.3675C19.1644 21.5165 19 21.682 19 21.8862V24.8657C19 25.0699 19.1646 25.2353 19.3675 25.2353H21.7172V32.7535C21.7172 32.9577 21.8816 33.123 22.0847 33.123H25.1504C25.3534 33.123 25.5178 32.9575 25.5178 32.7535V25.2353H28.2652C28.4682 25.2353 28.6327 25.0699 28.6327 24.8657L28.6338 21.8862C28.6338 21.7882 28.595 21.6943 28.5262 21.6249C28.4574 21.5555 28.3636 21.5165 28.2661 21.5165H25.5178V19.7733C25.5178 18.9354 25.7164 18.51 26.8017 18.51L28.376 18.5095C28.5789 18.5095 28.7433 18.3439 28.7433 18.1399V15.3733C28.7433 15.1695 28.579 15.0041 28.3764 15.0038Z" fill="white"/>
</svg>
