<svg width="40" height="40" viewBox="0 0 40 40" fill="none" xmlns="http://www.w3.org/2000/svg">
<path d="M19.7298 36.6666C13.4496 36.6666 8.34486 31.6513 8.33333 25.4952V14.5046C8.33333 8.3485 13.4496 3.33325 19.7298 3.33325H20.548C26.8281 3.33325 31.9444 8.3485 31.9444 14.5046V25.4952C31.9444 31.6513 26.8281 36.6666 20.548 36.6666H19.7298ZM11.168 14.5046V25.4952C11.168 30.1264 15.0168 33.8992 19.7413 33.8992H20.5595C25.284 33.8992 29.1328 30.1264 29.1328 25.4952V14.5046C29.1328 9.87341 25.284 6.10068 20.5595 6.10068H19.7413C15.0168 6.10068 11.168 9.87341 11.168 14.5046ZM20.8333 17.2221C20.0655 17.2221 19.4444 16.5856 19.4444 15.7724V10.3386C19.4444 9.53709 20.0655 8.88881 20.8333 8.88881C21.6012 8.88881 22.2222 9.53709 22.2222 10.3386V15.7724C22.2222 16.5739 21.6012 17.2221 20.8333 17.2221Z" fill="#FD5545"/>
</svg>
